<?xml version="1.0" encoding="utf-8"?>
<!-- Generator: Adobe Illustrator 22.0.1, SVG Export Plug-In . SVG Version: 6.00 Build 0)  -->
<svg version="1.1" id="Layer_1" xmlns="http://www.w3.org/2000/svg" xmlns:xlink="http://www.w3.org/1999/xlink" x="0px" y="0px"
	 viewBox="0 0 93 32.2" style="enable-background:new 0 0 93 32.2;" xml:space="preserve">
<style type="text/css">
	.st0{fill:#231F20;}
	.st1{fill:#00AC6F;}
	.st2{fill:none;stroke:#00AC6F;stroke-miterlimit:10;}
</style>
<path class="st0" d="M14.3,13.2c0.8,0.7,1.2,1.6,1.2,2.8s-0.4,2.1-1.2,2.8c-0.8,0.7-1.9,1-3.4,1H7.7v3.7H6.9V12.1H11
	C12.4,12.1,13.5,12.5,14.3,13.2z M13.7,18.2c0.6-0.5,1-1.3,1-2.3s-0.3-1.7-1-2.3c-0.6-0.5-1.6-0.8-2.8-0.8H7.7V19H11
	C12.2,19,13.1,18.8,13.7,18.2z"/>
<path class="st0" d="M23,12.1h0.8v11.4H23V12.1z"/>
<path class="st0" d="M34.2,22.8c-0.9-0.5-1.6-1.2-2.1-2.1s-0.8-1.9-0.8-3s0.3-2.1,0.8-3s1.2-1.6,2.1-2.1c0.9-0.5,1.9-0.7,3-0.7
	c0.8,0,1.6,0.1,2.3,0.4c0.7,0.3,1.3,0.7,1.8,1.2L40.8,14c-0.9-0.9-2.1-1.3-3.5-1.3c-1,0-1.8,0.2-2.6,0.6c-0.8,0.4-1.4,1-1.8,1.8
	c-0.4,0.8-0.7,1.6-0.7,2.6c0,0.9,0.2,1.8,0.7,2.6s1.1,1.4,1.8,1.8c0.8,0.4,1.6,0.7,2.6,0.7c1.4,0,2.6-0.5,3.5-1.4l0.5,0.5
	c-0.5,0.5-1.1,0.9-1.8,1.2c-0.7,0.3-1.5,0.4-2.3,0.4C36.1,23.6,35.1,23.3,34.2,22.8z"/>
<path class="st0" d="M52.1,17.9l-2.6,2.6v3h-0.8V12.1h0.8v7.3l7.1-7.3h1l-5,5.2l5.3,6.2h-1L52.1,17.9z"/>
<path class="st0" d="M64.8,12.1h0.8v10.6h6.5v0.7h-7.4L64.8,12.1L64.8,12.1z"/>
<path class="st0" d="M86.8,22.8v0.7H79V12.1h7.6v0.7h-6.8v4.5h6.1V18h-6.1v4.7L86.8,22.8L86.8,22.8z"/>
<g>
	<path class="st1" d="M54.2,5.7c0.6-0.1,0.6-0.7,0.4-1.2c1.3-0.6,2.8-1.7,3.3-3.1c0-0.1,0-0.1,0-0.3c-0.3-0.3-0.6-0.4-0.9-0.6
		c-0.1,0-0.3,0-0.3,0.1c-0.6,1.3-1.6,2-2.8,2.8c-0.1-0.3-0.7-0.6-1-0.3C52.7,3.1,52.6,3,52.3,3c-1.2-0.1-2.5,1-3.5,1.6
		C47,5.5,45.3,6,43.4,5.2c-0.7-0.4-1.5-0.9-1.9-1.3c-0.3-0.3-0.6-0.6-0.7-0.9c-0.1-0.3-0.3-0.6-0.4-0.9c-0.4-0.6-0.7-0.1-0.9,0.4
		c-0.1,1.2,0.4,2.2,1.2,3.1c1.7,2.3,4.1,3.5,7,3.2c1.6-0.1,3.2-0.6,4.7-1.3C53.1,7.1,53.9,6.6,54.2,5.7z M53.9,4
		C54,4.1,54,4.1,54.2,4l0,0c1.2-0.7,2.2-1.6,2.9-2.8c0.1,0,0.1,0.1,0.3,0.1c0.1,0,0.1,0,0.1,0c0,0.4-0.6,0.9-0.9,1.2
		c-0.6,0.6-1.6,1.3-2.3,1.7l0,0l0,0l0,0l0,0l0,0l0,0l0,0l0,0c0,0.1,0.1,0.6,0,0.7c0-0.1,0-0.1,0-0.3c0,0,0,0,0-0.1
		c-0.1-0.4-0.4-1-0.9-1.3C53.4,3.4,53.9,4,53.9,4z M49.4,7.9c-1.5,0.3-3.1,0.6-4.5,0.1c-1.6-0.4-2.9-1.6-3.9-2.9
		c-0.4-0.4-0.9-1-1-1.9c0-0.1-0.1-0.7,0.1-0.7l0.3,0.6c1,1.7,3.3,3.1,5.5,2.9c1.2-0.1,2.2-0.6,3.2-1.2C49.7,4.6,50.4,4,51,3.7
		c1.3-0.6,2.3,0,2.8,1.3C54.2,6.9,50.7,7.8,49.4,7.9z"/>
	<path class="st1" d="M52.3,5.7c-0.9,1-2.8,1.3-3.9,1.6c-0.3,0-0.1,0.4,0.1,0.4c1.3-0.3,3.2-0.6,4.2-1.6C52.9,5.7,52.4,5.5,52.3,5.7
		z"/>
	<path class="st1" d="M52.9,5.5c0.1,0.1,0.4-0.1,0.3-0.3C52.9,4.9,52.6,5.2,52.9,5.5z"/>
</g>
<polyline class="st2" points="37.8,7 2,7 2,28.7 91,28.7 91,7 58.5,7 "/>
</svg>
