<?xml version="1.0" encoding="utf-8"?>
<!-- Generator: Adobe Illustrator 22.0.1, SVG Export Plug-In . SVG Version: 6.00 Build 0)  -->
<svg version="1.1" id="Layer_1" xmlns="http://www.w3.org/2000/svg" xmlns:xlink="http://www.w3.org/1999/xlink" x="0px" y="0px"
	 viewBox="0 0 61.4 62.9" style="enable-background:new 0 0 61.4 62.9;" xml:space="preserve">
<style type="text/css">
	.st0{fill:#006837;}
	.st1{fill:url(#SVGID_1_);}
	.st2{fill:url(#SVGID_2_);}
</style>
<g>
	<g>
		<g>
			<path class="st0" d="M15.9,23.2c5.1-3.7,16.5-4,18.3,1.5c1.5,4.5,6.6,12.7,12.9,19.5c2.5,2.7,5.1,5.4,7.7,8
				c0.7,0.7,1.4,1.4,2,2.2c0.9,1.2,0.9,2.2-0.4,3c-2.3,1.5-5,1.9-7.7,1.6c-1.6-0.2-3.1-0.7-4.6-1.3C36.6,54.5,19.9,45.5,14,40.7
				C8.2,35.9,10.8,26.9,15.9,23.2z"/>
			
				<linearGradient id="SVGID_1_" gradientUnits="userSpaceOnUse" x1="718.623" y1="14.2005" x2="734.1312" y2="14.2005" gradientTransform="matrix(-1 0 0 1 738.551 0)">
				<stop  offset="0" style="stop-color:#006837"/>
				<stop  offset="1" style="stop-color:#006837"/>
			</linearGradient>
			<path class="st1" d="M4.8,5.5c0.7-1.1,2.8-1.7,3.6-0.3C8.8,6,8.9,7,9,7.9c0.3,1.4,0.9,2.7,1.6,3.8c0.2,0.3,1.5,2.6,2,2.6
				c0,0,4-0.3,5.8,0.5c0.3,0.2,0.9,0.6,1.3,1c0.2,0.2,0.2,0.5-0.1,0.5c-1.1,0.3-3.5,0.9-4.9,2c-2.7,2.1-4,4.5-4.4,5.5
				c-0.1,0.3-0.4,0.3-0.5,0.1c-0.4-0.6-1-1.8-1.1-2.8c-0.2-1.2,0.3-2.4,0.9-3.5c0.1-0.2,0.3-0.7,0.5-1c0.1-0.3,0.1-0.6,0-0.8
				c-0.1-0.1-0.3-0.3-0.3-0.3c-1-0.9-1.9-2-2.8-3c-1.1-1.4-2-2.9-2.4-4.7C4.4,7,4.4,6.1,4.8,5.5z"/>
			
				<linearGradient id="SVGID_2_" gradientUnits="userSpaceOnUse" x1="681.1364" y1="36.6333" x2="727.8542" y2="36.6333" gradientTransform="matrix(-1 0 0 1 738.551 0)">
				<stop  offset="0" style="stop-color:#00AC6F"/>
				<stop  offset="1" style="stop-color:#006837"/>
			</linearGradient>
			<path class="st2" d="M15.9,20c5.1-3.7,16.5-4,18.3,1.5c1.5,4.5,6.6,12.7,12.9,19.5c2.5,2.7,5.1,5.4,7.7,8c0.7,0.7,1.4,1.4,2,2.2
				c0.9,1.2,0.9,2.2-0.4,3c-2.3,1.5-5,1.9-7.7,1.6c-1.6-0.2-3.1-0.7-4.6-1.3C36.6,51.3,19.9,42.3,14,37.5
				C8.2,32.7,10.8,23.7,15.9,20z"/>
		</g>
	</g>
</g>
</svg>
