<?xml version="1.0" encoding="utf-8"?>
<!-- Generator: Adobe Illustrator 22.0.1, SVG Export Plug-In . SVG Version: 6.00 Build 0)  -->
<svg version="1.1" id="Layer_1" xmlns="http://www.w3.org/2000/svg" xmlns:xlink="http://www.w3.org/1999/xlink" x="0px" y="0px"
	 viewBox="0 0 216.3 222.9" style="enable-background:new 0 0 216.3 222.9;" xml:space="preserve">
<style type="text/css">
	.st0{fill:#FFFFFF;stroke:#000000;stroke-miterlimit:10;}
	.st1{fill:#F2F2F2;}
	.st2{fill:#666666;}
	.st3{font-family:'Raleway-Bold';}
	.st4{font-size:13.7591px;}
</style>
<g id="oHedAt.tif">
</g>
<g>
	<circle cx="112.7" cy="120.2" r="100.9"/>
	<circle class="st0" cx="104.7" cy="107.6" r="100.9"/>
	<g>
		<g>
			<path d="M90.9,61.2v46.1c0,5.3-1.2,9.9-3.5,13.9c-2.4,4-5.8,7-10.2,9.1c-4.5,2.1-9.7,3.2-15.8,3.2c-9.2,0-16.3-2.3-21.4-7
				s-7.6-11.1-7.6-19.3v-46h15.1v43.7c0,5.5,1.1,9.5,3.3,12.1c2.2,2.6,5.9,3.9,11,3.9c4.9,0,8.5-1.3,10.8-3.9
				c2.2-2.6,3.3-6.6,3.3-12.2V61.2H90.9z"/>
			<path d="M166,132.5h-17.3l-16.6-27l-16.6,27H99.4l23.7-36.8l-22.1-34.5h16.7L133,86.9L148,61.2h16.3l-22.4,35.4L166,132.5z"/>
		</g>
		<g>
			<path class="st1" d="M102.9,61.2v46.1c0,5.3-1.2,9.9-3.5,13.9c-2.4,4-5.8,7-10.2,9.1c-4.5,2.1-9.7,3.2-15.8,3.2
				c-9.2,0-16.3-2.3-21.4-7s-7.6-11.1-7.6-19.3v-46h15.1v43.7c0,5.5,1.1,9.5,3.3,12.1c2.2,2.6,5.9,3.9,11,3.9
				c4.9,0,8.5-1.3,10.8-3.9c2.2-2.6,3.3-6.6,3.3-12.2V61.2H102.9z"/>
			<path class="st1" d="M178,132.5h-17.3l-16.6-27l-16.6,27h-16.2L135,95.8l-22.1-34.5h16.7l15.4,25.7L160,61.2h16.3l-22.4,35.4
				L178,132.5z"/>
		</g>
	</g>
	<text transform="matrix(1 0 0 1 65.1019 161.9304)" class="st2 st3 st4">Workshop</text>
</g>
</svg>
