<?xml version="1.0" encoding="utf-8"?>
<!-- Generator: Adobe Illustrator 22.0.1, SVG Export Plug-In . SVG Version: 6.00 Build 0)  -->
<svg version="1.1" id="Layer_1" xmlns="http://www.w3.org/2000/svg" xmlns:xlink="http://www.w3.org/1999/xlink" x="0px" y="0px"
	 viewBox="0 0 51.6 22.5" style="enable-background:new 0 0 51.6 22.5;" xml:space="preserve">
<g>
	<path d="M4.1,7c0.8,0,1.3,0.2,1.4,0.6C6.1,7.2,6.9,7,7.8,7c0.9,0,1.7,0.4,2.3,1.1c0.6,0.7,1,1.6,1,2.6c0,0.1,0,0.3,0,0.4
		c-0.1,1.6-0.7,2.9-1.6,3.7c-1,0.9-2.2,1.3-3.8,1.3c-0.3,0-0.7,0-1.1-0.1l-0.6,5.2H1.4C2.2,14.3,2.8,9.6,3,7.2C3.3,7.1,3.6,7,4.1,7z
		 M8.4,10.8c0-0.6-0.1-1-0.4-1.5C7.8,8.9,7.4,8.7,6.9,8.7c-0.7,0-1.3,0.5-1.6,1.4C5,12,4.8,13,4.8,13.3c0,0.4,0.1,0.7,0.4,0.8
		c0.2,0.2,0.6,0.3,0.9,0.3c0.6,0,1.2-0.3,1.6-0.9C8.2,12.9,8.4,12,8.4,10.8z"/>
	<path d="M13.3,7.2C13.7,7.1,14,7,14.4,7c0.3,0,0.6,0,0.9,0.1c-0.5,3.8-0.7,5.7-0.7,5.7c-0.1,0.2-0.1,0.5-0.1,0.6c0,0.2,0,0.3,0,0.4
		c0,0.3,0.3,0.5,0.7,0.5c0.4,0,0.8-0.3,1.1-0.8c0.3-0.5,0.6-1.1,0.8-1.8c0.1,0.1,0.2,0.2,0.4,0.4s0.3,0.4,0.3,0.6
		c-0.2,1-0.7,1.8-1.3,2.4c-0.6,0.6-1.3,0.9-2.2,0.9c-0.8,0-1.5-0.2-1.9-0.6c-0.4-0.4-0.6-0.9-0.6-1.6c0-0.1,0-0.3,0-0.4l0.7-5.8
		C12.7,7.5,13,7.3,13.3,7.2z M12.2,3.2c0.4-0.3,1.4-0.3,1.5,0.1c0.1,0.4,0.6,1.1,1.1,1.6c0.2,0.2,0.4,0.4,0.6,0.7
		c0.1,0.1,0.1,0.1,0.2,0.2c0.1,0.1,0.1,0.2,0,0.2c-0.2,0.1-0.4,0.2-0.6,0.1c-0.1,0-0.3-0.1-0.4-0.1c-0.6-0.3-2-1-2.5-1.4
		C11.6,4.3,11.8,3.5,12.2,3.2z M11.3,1.7c0.1-0.1,0.2-0.1,0.3,0c0,0.1,0,0.1,0.1,0.2c0,0.1,0.1,0.2,0.1,0.3c0,0,0.1,0.2,0.2,0.2
		c0,0,0.3,0,0.5,0c0,0,0.1,0.1,0.1,0.1c0,0,0,0,0,0c-0.1,0-0.3,0.1-0.4,0.2c-0.2,0.2-0.3,0.4-0.4,0.5c0,0,0,0,0,0
		c0-0.1-0.1-0.1-0.1-0.2c0-0.1,0-0.2,0.1-0.3c0,0,0-0.1,0-0.1c0,0,0-0.1,0-0.1c0,0,0,0,0,0c-0.1-0.1-0.2-0.2-0.2-0.3
		c-0.1-0.1-0.2-0.2-0.2-0.4C11.3,1.9,11.3,1.8,11.3,1.7z M12.2,2.9c0.4-0.3,1.4-0.3,1.5,0.1c0.1,0.4,0.6,1.1,1.1,1.6
		c0.2,0.2,0.4,0.4,0.6,0.7c0.1,0.1,0.1,0.1,0.2,0.2c0.1,0.1,0.1,0.2,0,0.2c-0.2,0.1-0.4,0.2-0.6,0.1c-0.1,0-0.3-0.1-0.4-0.1
		c-0.6-0.3-2-1-2.5-1.4C11.6,4,11.8,3.3,12.2,2.9z"/>
	<path d="M22.1,9.7c0-0.8-0.4-1.2-1.1-1.2c-0.5,0-1,0.3-1.4,0.9c-0.4,0.7-0.7,1.4-0.7,2.3c0,0.9,0.2,1.6,0.6,2.1
		c0.4,0.5,0.9,0.7,1.6,0.7c0.8,0,1.7-0.3,2.6-1c0.9-0.7,1.7-1.5,2.2-2.5c0.2,0.2,0.5,0.5,0.7,1c-0.4,0.7-1,1.5-2,2.4
		c-0.5,0.5-1.1,0.9-1.9,1.2c-0.8,0.4-1.6,0.5-2.5,0.5c-1.1,0-2.1-0.4-2.8-1.1c-0.8-0.8-1.2-1.8-1.2-3c0-1.5,0.5-2.7,1.5-3.6
		c1-0.9,2.1-1.4,3.4-1.4c1,0,1.7,0.2,2.3,0.6C24,8,24.3,8.5,24.3,9.2c0,0.4-0.1,0.8-0.4,1.1c-0.5,0.5-1.2,0.8-2,0.8
		C22,10.5,22.1,10,22.1,9.7z"/>
	<path d="M33.5,9.3c0,1.3-0.8,2.3-2.3,3c0,0.2,0.1,0.5,0.2,0.8c0.2,0.9,0.6,1.4,1.1,1.4c0,0,0.1,0,0.1,0c1,0,1.7-0.9,2.2-2.6
		c0.3,0.2,0.5,0.6,0.7,1.1c-0.2,0.7-0.4,1.2-0.7,1.7c-0.3,0.5-0.7,0.8-1,1c-0.7,0.4-1.3,0.5-1.9,0.5c-1.4,0-2.3-0.8-2.9-2.3
		c-0.2-0.6-0.4-1.2-0.4-1.9c0.7-0.2,1.3-0.5,1.7-0.9c0.4-0.4,0.6-0.8,0.6-1.3c0-0.8-0.4-1.2-1.2-1.2c-0.4,0-0.8,0.2-1.1,0.5
		c-0.3,0.3-0.5,0.7-0.6,1.2c-0.1,0.6-0.2,1.6-0.4,3s-0.3,2.3-0.3,2.7h-2.5c0.9-7.7,1.4-12.4,1.6-14.1c0.3-0.1,0.6-0.1,1.1-0.1
		c1,0,1.5,0.3,1.5,0.9v0.1c-0.2,2.3-0.5,4-0.7,5.2c0.7-0.6,1.5-1,2.6-1c0.8,0,1.4,0.2,1.9,0.6C33.3,8,33.5,8.6,33.5,9.3z"/>
	<path d="M36.9,16.2c-0.8,0-1.4-0.2-1.8-0.6c-0.4-0.4-0.7-1-0.7-1.8c0-0.2,0.3-3.2,1-8.9c0.2-1.5,0.6-2.4,1.4-2.8
		c0.4-0.2,0.8-0.3,1.3-0.3c1.6,0,2.5,0.8,2.5,2.3c0,0.1,0,0.3,0,0.4c-0.1,1.7-1.2,3.4-3.1,5.1c-0.1,0.6-0.1,1.2-0.2,1.8
		c-0.1,1.3-0.2,2-0.2,2.1c0,0.6,0.3,1,0.8,1c0.6,0,1.2-0.4,1.7-1.1c0.5-0.7,0.9-1.6,1.2-2.7c0.1,0,0.3,0.1,0.5,0.3
		c0.2,0.2,0.3,0.3,0.4,0.4c-0.2,1-0.6,2-1.3,3c-0.4,0.5-0.8,0.9-1.3,1.2C38.3,16,37.6,16.2,36.9,16.2z M37.6,7.7
		c1.1-1.3,1.7-2.4,1.7-3.4c0-0.6-0.2-0.9-0.7-0.9c-0.3,0-0.5,0.2-0.6,0.6c-0.1,0.4-0.2,0.9-0.3,1.7c-0.1,0.8-0.1,1.3-0.2,1.5
		L37.6,7.7z"/>
	<path d="M45.3,10.9c0.4-0.5,0.6-0.9,0.6-1.3c0-0.4-0.1-0.7-0.3-0.9c-0.2-0.2-0.5-0.2-0.8-0.2c-0.6,0-1.1,0.3-1.5,1
		c-0.4,0.7-0.7,1.4-0.7,2.3c0,0.9,0.2,1.6,0.6,2c0.4,0.4,1,0.7,1.6,0.7c0.9,0,1.8-0.3,2.7-1c0.9-0.6,1.6-1.5,2.1-2.5
		c0.3,0.3,0.5,0.6,0.7,1c-0.4,0.9-1.1,1.9-2.2,2.8c-0.5,0.4-1.1,0.8-1.9,1.1c-0.7,0.3-1.5,0.4-2.2,0.4c-1.2,0-2.2-0.4-3-1.1
		c-0.8-0.8-1.2-1.9-1.2-3.2c0-1.3,0.5-2.4,1.5-3.4c1-1,2.1-1.4,3.5-1.4c1,0,1.7,0.2,2.3,0.6c0.6,0.4,0.9,1,0.9,1.7
		c0,1-0.4,1.7-1.2,2.3c-0.8,0.6-1.8,1-3.2,1.3l-0.3-1.1C44.3,11.7,44.9,11.4,45.3,10.9z"/>
</g>
</svg>
